<svg width="111" height="110" viewBox="0 0 111 110" fill="none" xmlns="http://www.w3.org/2000/svg">
<path d="M99.0434 88.8209L86.897 89.7698L84.6195 101.537L73.0425 98.1205L66.9692 108.559L57.1003 101.347L47.8006 109.128L40.9683 99.0694L29.581 103.055L26.7341 91.2881L14.5877 91.0983L15.9162 78.9519L4.52892 74.7766L10.0328 63.7688L0.733154 55.9875L9.46341 47.6368L3.57998 37.0087L14.7775 32.0742L12.8796 20.1175L24.8363 19.3584L27.1137 7.40174L38.6908 10.8179L44.9538 0.569365L54.8228 7.59153L64.1224 0L70.765 10.0588L82.3421 6.07322L85.1889 17.8401L97.3353 18.0299L96.0068 29.9865L107.204 34.3517L101.89 45.1696L111 53.1407L102.27 61.4914L108.153 72.1195L97.1456 76.8642L99.0434 88.8209Z" fill="url(#paint0_linear_584_2145)"/>
<path d="M55.9614 95.274C78.4971 95.274 96.7659 77.0052 96.7659 54.4695C96.7659 31.9338 78.4971 13.665 55.9614 13.665C33.4258 13.665 15.157 31.9338 15.157 54.4695C15.157 77.0052 33.4258 95.274 55.9614 95.274Z" fill="url(#paint1_radial_584_2145)"/>
<path d="M62.2246 50.2933C51.7862 41.9427 47.8007 29.0371 53.1148 21.6353C58.4288 14.2336 71.3344 14.9927 81.7728 23.5332C92.2111 31.8839 96.1967 44.7895 90.8826 52.1912C85.3787 59.593 72.4731 58.8338 62.2246 50.2933Z" fill="url(#paint2_radial_584_2145)"/>
<path opacity="0.4" d="M19.9018 63.5784C21.2303 59.0235 28.2525 60.9214 35.4644 67.7538C42.6764 74.5861 47.4211 83.696 46.0926 88.2509C44.7641 92.8058 37.7419 90.9079 30.5299 84.0755C23.318 77.2432 18.3835 68.1333 19.9018 63.5784Z" fill="url(#paint3_radial_584_2145)"/>
<defs>
<linearGradient id="paint0_linear_584_2145" x1="106.191" y1="-1.6356" x2="9.304" y2="106.632" gradientUnits="userSpaceOnUse">
<stop stop-color="#FFBA24"/>
<stop offset="1" stop-color="#FF5500"/>
</linearGradient>
<radialGradient id="paint1_radial_584_2145" cx="0" cy="0" r="1" gradientUnits="userSpaceOnUse" gradientTransform="translate(65.2656 28.931) rotate(180) scale(77.5106 77.5106)">
<stop stop-color="#FFF4C3"/>
<stop offset="0.1559" stop-color="#FFE036"/>
<stop offset="1" stop-color="#FA761C"/>
</radialGradient>
<radialGradient id="paint2_radial_584_2145" cx="0" cy="0" r="1" gradientUnits="userSpaceOnUse" gradientTransform="translate(71.9128 36.9066) rotate(126.034) scale(16.5981 24.2135)">
<stop stop-color="white"/>
<stop offset="1" stop-color="white" stop-opacity="0"/>
</radialGradient>
<radialGradient id="paint3_radial_584_2145" cx="0" cy="0" r="1" gradientUnits="userSpaceOnUse" gradientTransform="translate(32.997 75.9154) rotate(-136.79) scale(18.0492 7.66618)">
<stop stop-color="white"/>
<stop offset="1" stop-color="white" stop-opacity="0"/>
</radialGradient>
</defs>
</svg>
