<svg width="50" height="49" viewBox="0 0 50 49" fill="none" xmlns="http://www.w3.org/2000/svg">
<path d="M25.4989 48.8379C39.0305 48.8379 50 37.9054 50 24.4195C50 10.9335 39.0305 0.000976562 25.4989 0.000976562C11.9673 0.000976562 0.997803 10.9335 0.997803 24.4195C0.997803 37.9054 11.9673 48.8379 25.4989 48.8379Z" fill="url(#paint0_radial_2135_1908)"/>
<path d="M29.2594 21.9206C22.9917 16.9233 20.5986 9.20028 23.7894 4.77088C26.9802 0.341477 34.7294 0.795774 40.9971 5.90662C47.2649 10.9039 49.658 18.6269 46.4671 23.0563C43.1623 27.4857 35.4132 27.0314 29.2594 21.9206Z" fill="url(#paint1_radial_2135_1908)"/>
<path opacity="0.4" d="M3.84686 29.8715C4.64457 27.1457 8.86104 28.2814 13.1915 32.3701C17.5219 36.4588 20.3709 41.9103 19.5731 44.6361C18.7754 47.3619 14.559 46.2262 10.2285 42.1375C5.89812 38.0488 2.93519 32.5973 3.84686 29.8715Z" fill="url(#paint2_radial_2135_1908)"/>
<defs>
<radialGradient id="paint0_radial_2135_1908" cx="0" cy="0" r="1" gradientUnits="userSpaceOnUse" gradientTransform="translate(31.0856 9.13656) rotate(180) scale(46.5414 46.3844)">
<stop stop-color="#B6CCD2"/>
<stop offset="0.1559" stop-color="#97B6BE"/>
<stop offset="1" stop-color="#5D87B4"/>
</radialGradient>
<radialGradient id="paint1_radial_2135_1908" cx="0" cy="0" r="1" gradientUnits="userSpaceOnUse" gradientTransform="translate(35.0767 13.9096) rotate(126.127) scale(9.94442 14.522)">
<stop stop-color="white"/>
<stop offset="1" stop-color="white" stop-opacity="0"/>
</radialGradient>
<radialGradient id="paint2_radial_2135_1908" cx="0" cy="0" r="1" gradientUnits="userSpaceOnUse" gradientTransform="translate(11.7099 37.2542) rotate(-136.886) scale(10.8205 4.59491)">
<stop stop-color="white"/>
<stop offset="1" stop-color="white" stop-opacity="0"/>
</radialGradient>
</defs>
</svg>
