<svg width="197" height="109" viewBox="0 0 197 109" fill="none" xmlns="http://www.w3.org/2000/svg">
<path d="M75.5783 26.5455C74.6031 12.08 62.4131 0.540039 47.6225 0.540039C32.8319 0.540039 20.8044 12.08 19.8292 26.5455C8.77684 27.0331 0 36.135 0 47.3498C0 58.8898 9.26445 68.1542 20.8044 68.1542H74.4406C85.9805 68.1542 95.2449 58.8898 95.2449 47.3498C95.4075 36.135 86.6306 27.0331 75.5783 26.5455Z" fill="url(#paint0_radial_584_2272)"/>
<path d="M47.6226 29.1463C39.821 22.8075 36.7328 13.0554 40.7962 7.52927C44.8595 2.00311 54.449 2.49072 62.4132 8.99208C70.2148 15.3309 73.303 25.0829 69.2396 30.6091C65.1763 36.1353 55.5868 35.4851 47.6226 29.1463Z" fill="url(#paint1_radial_584_2272)"/>
<path opacity="0.4" d="M75.7409 47.999C69.5646 42.9604 67.1266 35.3213 70.3773 30.9329C73.628 26.5445 81.1045 27.0321 87.2808 32.0707C93.4571 37.1092 95.8951 44.7483 92.6444 49.1367C89.3938 53.3626 81.9172 52.875 75.7409 47.999Z" fill="url(#paint2_radial_584_2272)"/>
<path opacity="0.2" d="M14.9532 48.6502C10.4023 41.4987 5.20117 38.0854 3.08822 41.011C1.13782 43.9367 3.25076 51.9008 7.80171 59.0523C12.3527 66.2038 17.5538 69.617 19.6667 66.6914C21.6171 63.7658 19.5042 55.8016 14.9532 48.6502Z" fill="url(#paint3_radial_584_2272)"/>
<path d="M177.487 26.5455C176.512 12.08 164.322 0.540039 149.531 0.540039C134.741 0.540039 122.713 12.08 121.575 26.5455C110.523 27.0331 101.746 36.135 101.746 47.3498C101.746 58.8898 111.011 68.1542 122.551 68.1542H176.187C187.727 68.1542 196.991 58.8898 196.991 47.3498C197.316 36.135 188.539 27.0331 177.487 26.5455Z" fill="url(#paint4_radial_584_2272)"/>
<path d="M149.694 29.1463C141.892 22.8075 138.804 13.0554 142.867 7.52927C146.931 2.00311 156.52 2.49072 164.484 8.99208C172.286 15.3309 175.374 25.0829 171.311 30.6091C167.085 36.1353 157.496 35.4851 149.694 29.1463Z" fill="url(#paint5_radial_584_2272)"/>
<path opacity="0.4" d="M177.65 47.999C171.473 42.9604 169.035 35.3213 172.286 30.9329C175.537 26.5445 183.013 27.0321 189.19 32.0707C195.366 37.1092 197.804 44.7483 194.553 49.1367C191.303 53.3626 183.826 52.875 177.65 47.999Z" fill="url(#paint6_radial_584_2272)"/>
<path opacity="0.2" d="M116.862 48.6502C112.311 41.4987 107.11 38.0854 104.997 41.011C103.047 43.9367 105.16 51.9008 109.711 59.0523C114.261 66.2038 119.463 69.617 121.576 66.6914C123.526 63.7658 121.413 55.8016 116.862 48.6502Z" fill="url(#paint7_radial_584_2272)"/>
<path d="M132.303 57.915C131.165 40.3613 116.537 26.5459 98.6582 26.5459C80.7795 26.5459 66.1514 40.3613 65.0137 57.915C51.6859 58.5651 41.1212 69.6174 41.1212 83.1077C41.1212 96.9231 52.336 108.301 66.3139 108.301H131.165C144.98 108.301 156.358 97.0857 156.358 83.1077C156.195 69.4549 145.631 58.5651 132.303 57.915Z" fill="url(#paint8_radial_584_2272)"/>
<path d="M98.6581 61.0039C89.2311 53.3648 85.4928 41.6623 90.3689 34.8359C95.2449 28.0095 106.947 28.8222 116.374 36.4613C125.801 44.1004 129.54 55.8028 124.664 62.6292C119.788 69.4557 108.085 68.643 98.6581 61.0039Z" fill="url(#paint9_radial_584_2272)"/>
<path opacity="0.4" d="M132.465 83.7578C124.989 77.7441 122.063 68.4796 125.964 63.2785C129.865 57.9149 138.967 58.5651 146.443 64.5788C153.92 70.5926 156.845 79.857 152.945 85.0581C149.044 90.2592 139.942 89.7716 132.465 83.7578Z" fill="url(#paint10_radial_584_2272)"/>
<path opacity="0.2" d="M58.9998 84.5701C53.4737 75.9558 47.1348 71.8924 44.6968 75.3056C42.2588 78.7188 44.8594 88.4709 50.3855 97.0852C55.9117 105.699 62.2505 109.763 64.6885 106.35C67.1265 102.936 64.526 93.1844 58.9998 84.5701Z" fill="url(#paint11_radial_584_2272)"/>
<defs>
<radialGradient id="paint0_radial_584_2272" cx="0" cy="0" r="1" gradientUnits="userSpaceOnUse" gradientTransform="translate(59.6927 14.7955) rotate(180) scale(72.6969 53.1051)">
<stop stop-color="white"/>
<stop offset="0.198" stop-color="#B4ECFF"/>
<stop offset="1" stop-color="#69ACF1"/>
</radialGradient>
<radialGradient id="paint1_radial_584_2272" cx="0" cy="0" r="1" gradientUnits="userSpaceOnUse" gradientTransform="translate(55.0378 19.0315) rotate(126.034) scale(12.5118 18.2523)">
<stop stop-color="white"/>
<stop offset="1" stop-color="white" stop-opacity="0"/>
</radialGradient>
<radialGradient id="paint2_radial_584_2272" cx="0" cy="0" r="1" gradientUnits="userSpaceOnUse" gradientTransform="translate(81.4826 39.9942) rotate(126.034) scale(9.83355 14.3453)">
<stop stop-color="white"/>
<stop offset="1" stop-color="white" stop-opacity="0"/>
</radialGradient>
<radialGradient id="paint3_radial_584_2272" cx="0" cy="0" r="1" gradientUnits="userSpaceOnUse" gradientTransform="translate(11.3348 53.8524) rotate(-25.7092) scale(5.0403 14.6727)">
<stop stop-color="white"/>
<stop offset="1" stop-color="white" stop-opacity="0"/>
</radialGradient>
<radialGradient id="paint4_radial_584_2272" cx="0" cy="0" r="1" gradientUnits="userSpaceOnUse" gradientTransform="translate(161.629 14.7955) rotate(180) scale(72.6968 53.105)">
<stop stop-color="white"/>
<stop offset="0.198" stop-color="#B4ECFF"/>
<stop offset="1" stop-color="#69ACF1"/>
</radialGradient>
<radialGradient id="paint5_radial_584_2272" cx="0" cy="0" r="1" gradientUnits="userSpaceOnUse" gradientTransform="translate(156.974 19.0316) rotate(126.034) scale(12.5116 18.252)">
<stop stop-color="white"/>
<stop offset="1" stop-color="white" stop-opacity="0"/>
</radialGradient>
<radialGradient id="paint6_radial_584_2272" cx="0" cy="0" r="1" gradientUnits="userSpaceOnUse" gradientTransform="translate(183.419 39.9939) rotate(126.034) scale(9.83355 14.3453)">
<stop stop-color="white"/>
<stop offset="1" stop-color="white" stop-opacity="0"/>
</radialGradient>
<radialGradient id="paint7_radial_584_2272" cx="0" cy="0" r="1" gradientUnits="userSpaceOnUse" gradientTransform="translate(113.269 53.8506) rotate(-25.7092) scale(5.0403 14.6727)">
<stop stop-color="white"/>
<stop offset="1" stop-color="white" stop-opacity="0"/>
</radialGradient>
<radialGradient id="paint8_radial_584_2272" cx="0" cy="0" r="1" gradientUnits="userSpaceOnUse" gradientTransform="translate(113.157 43.6576) rotate(180) scale(87.798 64.1364)">
<stop stop-color="white"/>
<stop offset="0.198" stop-color="#D5F3FF"/>
<stop offset="1" stop-color="#85BCF1"/>
</radialGradient>
<radialGradient id="paint9_radial_584_2272" cx="0" cy="0" r="1" gradientUnits="userSpaceOnUse" gradientTransform="translate(107.534 48.776) rotate(126.034) scale(15.1105 22.0434)">
<stop stop-color="white"/>
<stop offset="1" stop-color="white" stop-opacity="0"/>
</radialGradient>
<radialGradient id="paint10_radial_584_2272" cx="0" cy="0" r="1" gradientUnits="userSpaceOnUse" gradientTransform="translate(139.475 74.0919) rotate(126.034) scale(11.8753 17.3239)">
<stop stop-color="white"/>
<stop offset="1" stop-color="white" stop-opacity="0"/>
</radialGradient>
<radialGradient id="paint11_radial_584_2272" cx="0" cy="0" r="1" gradientUnits="userSpaceOnUse" gradientTransform="translate(54.7545 90.8282) rotate(-25.7092) scale(6.08734 17.7207)">
<stop stop-color="white"/>
<stop offset="1" stop-color="white" stop-opacity="0"/>
</radialGradient>
</defs>
</svg>
