<svg width="191" height="195" viewBox="0 0 191 195" fill="none" xmlns="http://www.w3.org/2000/svg">
<path d="M150.997 51.9895C148.926 22.9914 124.899 0 95.2796 0C65.6601 0 41.4259 22.9914 39.5617 51.9895C17.606 53.0251 0 71.2525 0 93.6225C0 116.614 18.6417 135.256 41.633 135.256H149.133C172.125 135.256 190.766 116.614 190.766 93.6225C190.559 71.2525 172.953 53.0251 150.997 51.9895Z" fill="url(#paint0_radial_584_2328)"/>
<path d="M95.2796 57.1675C79.5378 44.5326 73.531 25.0625 81.609 13.8775C89.6871 2.69247 109.157 3.93526 124.692 16.5702C140.434 29.2051 146.441 48.6752 138.363 59.8602C130.284 71.2523 110.814 70.0096 95.2796 57.1675Z" fill="url(#paint1_radial_584_2328)"/>
<path opacity="0.4" d="M151.205 94.8653C138.777 84.9231 134.013 69.5955 140.434 60.896C146.855 52.1966 161.975 53.0251 174.403 63.1745C186.831 73.1167 191.595 88.4442 185.174 97.1437C178.753 105.843 163.632 104.807 151.205 94.8653Z" fill="url(#paint2_radial_584_2328)"/>
<path opacity="0.2" d="M29.6195 96.3155C20.5058 82.0236 9.94214 75.1883 6.00668 80.9879C2.07122 86.7875 6.21381 102.944 15.3275 117.028C24.4412 131.32 35.0048 138.156 38.9403 132.356C42.8758 126.556 38.7332 110.4 29.6195 96.3155Z" fill="url(#paint3_radial_584_2328)"/>
<path d="M48.6753 160.942C46.3969 165.085 41.2186 166.328 37.076 164.049C32.9334 161.771 31.6907 156.593 33.9691 152.45C36.2475 148.308 50.9537 140.229 50.9537 140.229C50.9537 140.229 50.9537 156.8 48.6753 160.942Z" fill="url(#paint4_radial_584_2328)"/>
<path d="M34.1764 159.494C32.9336 155.973 33.555 152.451 36.0405 151.416C38.319 150.38 41.2188 152.451 42.6687 155.765C43.9115 159.287 43.0829 162.808 40.8045 163.843C38.319 164.879 35.4192 163.015 34.1764 159.494Z" fill="url(#paint5_radial_584_2328)"/>
<path d="M84.3018 160.942C82.0234 165.085 76.8451 166.328 72.7025 164.049C68.56 161.771 67.3172 156.593 69.5956 152.45C71.874 148.308 86.5802 140.229 86.5802 140.229C86.5802 140.229 86.5802 156.8 84.3018 160.942Z" fill="url(#paint6_radial_584_2328)"/>
<path d="M69.8029 159.494C68.5601 155.973 69.1815 152.451 71.6671 151.416C73.9455 150.38 76.8453 152.451 78.2952 155.765C79.538 159.287 78.7095 162.808 76.431 163.843C73.9455 164.879 71.0457 163.015 69.8029 159.494Z" fill="url(#paint7_radial_584_2328)"/>
<path d="M119.928 160.942C117.649 165.085 112.471 166.328 108.329 164.049C104.186 161.771 102.943 156.593 105.222 152.45C107.5 148.308 122.206 140.229 122.206 140.229C122.206 140.229 122.206 156.8 119.928 160.942Z" fill="url(#paint8_radial_584_2328)"/>
<path d="M105.429 159.494C104.186 155.973 104.808 152.451 107.293 151.416C109.572 150.38 112.471 152.451 113.921 155.765C115.164 159.287 114.336 162.808 112.057 163.843C109.572 164.879 106.672 163.015 105.429 159.494Z" fill="url(#paint9_radial_584_2328)"/>
<path d="M155.554 160.942C153.276 165.085 148.097 166.328 143.955 164.049C139.812 161.771 138.569 156.593 140.848 152.45C143.126 148.308 157.833 140.229 157.833 140.229C157.833 140.229 157.833 156.8 155.554 160.942Z" fill="url(#paint10_radial_584_2328)"/>
<path d="M141.055 159.494C139.812 155.973 140.434 152.451 142.919 151.416C145.198 150.38 148.097 152.451 149.547 155.765C150.79 159.287 149.962 162.808 147.683 163.843C145.198 164.879 142.298 163.015 141.055 159.494Z" fill="url(#paint11_radial_584_2328)"/>
<path d="M66.4886 190.766C64.2102 194.908 59.0319 196.151 54.8893 193.873C50.7467 191.594 49.5039 186.209 51.7824 182.273C54.0608 178.131 68.767 170.053 68.767 170.053C68.767 170.053 68.767 186.83 66.4886 190.766Z" fill="url(#paint12_radial_584_2328)"/>
<path d="M51.9894 189.52C50.7467 185.999 51.368 182.478 53.8536 181.442C56.132 180.406 59.0318 182.478 60.4817 185.792C61.7245 189.313 60.896 192.834 58.6176 193.87C56.132 194.906 53.2322 192.834 51.9894 189.52Z" fill="url(#paint13_radial_584_2328)"/>
<path d="M102.115 190.766C99.8364 194.908 94.6581 196.151 90.5155 193.873C86.3729 191.594 85.1302 186.209 87.4086 182.273C89.687 178.131 104.393 170.053 104.393 170.053C104.393 170.053 104.393 186.83 102.115 190.766Z" fill="url(#paint14_radial_584_2328)"/>
<path d="M87.6155 189.52C86.3728 185.999 86.9941 182.478 89.4797 181.442C91.7581 180.406 94.6579 182.478 96.1078 185.792C97.3506 189.313 96.5221 192.834 94.2437 193.87C91.7581 194.906 88.8583 192.834 87.6155 189.52Z" fill="url(#paint15_radial_584_2328)"/>
<path d="M137.741 190.766C135.463 194.908 130.284 196.151 126.142 193.873C121.999 191.594 120.756 186.209 123.035 182.273C125.313 178.131 140.019 170.053 140.019 170.053C140.019 170.053 140.019 186.83 137.741 190.766Z" fill="url(#paint16_radial_584_2328)"/>
<path d="M123.242 189.52C121.999 185.999 122.621 182.478 125.106 181.442C127.385 180.406 130.284 182.478 131.734 185.792C132.977 189.313 132.149 192.834 129.87 193.87C127.385 194.906 124.485 192.834 123.242 189.52Z" fill="url(#paint17_radial_584_2328)"/>
<defs>
<radialGradient id="paint0_radial_584_2328" cx="0" cy="0" r="1" gradientUnits="userSpaceOnUse" gradientTransform="translate(119.255 28.4687) rotate(180) scale(145.52 106.303)">
<stop stop-color="white"/>
<stop offset="0.198" stop-color="#D5F3FF"/>
<stop offset="1" stop-color="#85BCF1"/>
</radialGradient>
<radialGradient id="paint1_radial_584_2328" cx="0" cy="0" r="1" gradientUnits="userSpaceOnUse" gradientTransform="translate(109.934 36.9515) rotate(126.034) scale(25.045 36.5358)">
<stop stop-color="white"/>
<stop offset="1" stop-color="white" stop-opacity="0"/>
</radialGradient>
<radialGradient id="paint2_radial_584_2328" cx="0" cy="0" r="1" gradientUnits="userSpaceOnUse" gradientTransform="translate(162.872 78.9138) rotate(126.034) scale(19.6835 28.7144)">
<stop stop-color="white"/>
<stop offset="1" stop-color="white" stop-opacity="0"/>
</radialGradient>
<radialGradient id="paint3_radial_584_2328" cx="0" cy="0" r="1" gradientUnits="userSpaceOnUse" gradientTransform="translate(22.4636 106.649) rotate(-25.7092) scale(10.089 29.3699)">
<stop stop-color="white"/>
<stop offset="1" stop-color="white" stop-opacity="0"/>
</radialGradient>
<radialGradient id="paint4_radial_584_2328" cx="0" cy="0" r="1" gradientUnits="userSpaceOnUse" gradientTransform="translate(37.2523 159.011) rotate(30.0007) scale(20.4865 20.4865)">
<stop stop-color="#D0F2FF"/>
<stop offset="0.198" stop-color="#D5F3FF"/>
<stop offset="1" stop-color="#85BCF1"/>
</radialGradient>
<radialGradient id="paint5_radial_584_2328" cx="0" cy="0" r="1" gradientUnits="userSpaceOnUse" gradientTransform="translate(38.3347 157.677) rotate(156.037) scale(4.57763 6.67765)">
<stop stop-color="white"/>
<stop offset="1" stop-color="white" stop-opacity="0"/>
</radialGradient>
<radialGradient id="paint6_radial_584_2328" cx="0" cy="0" r="1" gradientUnits="userSpaceOnUse" gradientTransform="translate(72.8636 159.012) rotate(30.0007) scale(20.4865 20.4865)">
<stop stop-color="#D0F2FF"/>
<stop offset="0.198" stop-color="#D5F3FF"/>
<stop offset="1" stop-color="#85BCF1"/>
</radialGradient>
<radialGradient id="paint7_radial_584_2328" cx="0" cy="0" r="1" gradientUnits="userSpaceOnUse" gradientTransform="translate(73.9463 157.677) rotate(156.037) scale(4.57762 6.67765)">
<stop stop-color="white"/>
<stop offset="1" stop-color="white" stop-opacity="0"/>
</radialGradient>
<radialGradient id="paint8_radial_584_2328" cx="0" cy="0" r="1" gradientUnits="userSpaceOnUse" gradientTransform="translate(108.476 159.011) rotate(30.0007) scale(20.4873 20.4873)">
<stop stop-color="#D0F2FF"/>
<stop offset="0.198" stop-color="#D5F3FF"/>
<stop offset="1" stop-color="#85BCF1"/>
</radialGradient>
<radialGradient id="paint9_radial_584_2328" cx="0" cy="0" r="1" gradientUnits="userSpaceOnUse" gradientTransform="translate(109.558 157.678) rotate(156.037) scale(4.57763 6.67765)">
<stop stop-color="white"/>
<stop offset="1" stop-color="white" stop-opacity="0"/>
</radialGradient>
<radialGradient id="paint10_radial_584_2328" cx="0" cy="0" r="1" gradientUnits="userSpaceOnUse" gradientTransform="translate(144.087 159.012) rotate(30.0007) scale(20.4865 20.4865)">
<stop stop-color="#D0F2FF"/>
<stop offset="0.198" stop-color="#D5F3FF"/>
<stop offset="1" stop-color="#85BCF1"/>
</radialGradient>
<radialGradient id="paint11_radial_584_2328" cx="0" cy="0" r="1" gradientUnits="userSpaceOnUse" gradientTransform="translate(145.169 157.677) rotate(156.037) scale(4.57762 6.67765)">
<stop stop-color="white"/>
<stop offset="1" stop-color="white" stop-opacity="0"/>
</radialGradient>
<radialGradient id="paint12_radial_584_2328" cx="0" cy="0" r="1" gradientUnits="userSpaceOnUse" gradientTransform="translate(55.0584 188.929) rotate(30.0007) scale(20.4865 20.4865)">
<stop stop-color="#D0F2FF"/>
<stop offset="0.198" stop-color="#D5F3FF"/>
<stop offset="1" stop-color="#85BCF1"/>
</radialGradient>
<radialGradient id="paint13_radial_584_2328" cx="0" cy="0" r="1" gradientUnits="userSpaceOnUse" gradientTransform="translate(56.1399 187.591) rotate(156.037) scale(4.57762 6.67765)">
<stop stop-color="white"/>
<stop offset="1" stop-color="white" stop-opacity="0"/>
</radialGradient>
<radialGradient id="paint14_radial_584_2328" cx="0" cy="0" r="1" gradientUnits="userSpaceOnUse" gradientTransform="translate(90.67 188.929) rotate(30.0007) scale(20.4867 20.4867)">
<stop stop-color="#D0F2FF"/>
<stop offset="0.198" stop-color="#D5F3FF"/>
<stop offset="1" stop-color="#85BCF1"/>
</radialGradient>
<radialGradient id="paint15_radial_584_2328" cx="0" cy="0" r="1" gradientUnits="userSpaceOnUse" gradientTransform="translate(91.752 187.591) rotate(156.037) scale(4.57791 6.67808)">
<stop stop-color="white"/>
<stop offset="1" stop-color="white" stop-opacity="0"/>
</radialGradient>
<radialGradient id="paint16_radial_584_2328" cx="0" cy="0" r="1" gradientUnits="userSpaceOnUse" gradientTransform="translate(126.281 188.929) rotate(30.0007) scale(20.4865 20.4865)">
<stop stop-color="#D0F2FF"/>
<stop offset="0.198" stop-color="#D5F3FF"/>
<stop offset="1" stop-color="#85BCF1"/>
</radialGradient>
<radialGradient id="paint17_radial_584_2328" cx="0" cy="0" r="1" gradientUnits="userSpaceOnUse" gradientTransform="translate(127.363 187.591) rotate(156.037) scale(4.57792 6.67809)">
<stop stop-color="white"/>
<stop offset="1" stop-color="white" stop-opacity="0"/>
</radialGradient>
</defs>
</svg>
