<svg width="335" height="20" viewBox="0 0 335 20" fill="none" xmlns="http://www.w3.org/2000/svg">
<path d="M6.27803 14.1254C6.49686 14.1254 6.70673 14.2123 6.86147 14.3671C7.01621 14.5218 7.10314 14.7317 7.10314 14.9505C7.10314 15.1693 7.01621 15.3792 6.86147 15.5339C6.70673 15.6887 6.49686 15.7756 6.27803 15.7756C6.05919 15.7756 5.84932 15.6887 5.69458 15.5339C5.53985 15.3792 5.45291 15.1693 5.45291 14.9505C5.45291 14.7317 5.53985 14.5218 5.69458 14.3671C5.84932 14.2123 6.05919 14.1254 6.27803 14.1254ZM13.2898 8.3496C13.8369 8.3496 14.3616 8.56693 14.7484 8.95377C15.1353 9.34062 15.3526 9.8653 15.3526 10.4124C15.3526 10.9595 15.1353 11.4841 14.7484 11.871C14.3616 12.2578 13.8369 12.4752 13.2898 12.4752L13.2469 12.4735L13.1529 12.4809L12.5406 12.4801C12.633 12.7037 12.6842 12.9488 12.6842 13.2062C12.6873 13.4645 12.6387 13.7209 12.5414 13.9601C12.444 14.1994 12.2998 14.4169 12.1173 14.5996C11.9347 14.7824 11.7175 14.9269 11.4783 15.0246C11.2391 15.1222 10.9829 15.1711 10.7246 15.1683C9.89697 15.1683 9.28886 14.802 8.96707 14.198C8.89355 14.0595 8.87538 13.8982 8.91621 13.7468C8.95704 13.5954 9.05383 13.4651 9.18702 13.3823C9.32021 13.2995 9.47986 13.2704 9.63371 13.3008C9.78755 13.3312 9.92411 13.4189 10.0158 13.5462L10.0983 13.6806C10.2105 13.8407 10.3953 13.9307 10.7254 13.9307C10.8211 13.9334 10.9164 13.9165 11.0054 13.8811C11.0943 13.8456 11.1751 13.7923 11.2426 13.7244C11.3102 13.6565 11.3631 13.5755 11.3982 13.4864C11.4333 13.3973 11.4497 13.3019 11.4465 13.2062C11.4465 12.8432 11.1478 12.5337 10.7501 12.4917L10.5727 12.4809H2.7713C2.61451 12.4809 2.46358 12.4213 2.34901 12.3143C2.23445 12.2072 2.16478 12.0607 2.15409 11.9043C2.14341 11.7479 2.1925 11.5932 2.29144 11.4716C2.39039 11.3499 2.53181 11.2704 2.68714 11.249L2.7713 11.2433H13.1529L13.1925 11.2449L13.2411 11.2391L13.3864 11.2317C13.5278 11.2148 13.6624 11.1615 13.7771 11.0771C13.8918 10.9927 13.9827 10.8801 14.041 10.7501C14.0993 10.6202 14.1229 10.4774 14.1096 10.3356C14.0964 10.1938 14.0466 10.0578 13.9652 9.94097C13.8839 9.8241 13.7736 9.73028 13.6452 9.66865C13.5168 9.60701 13.3747 9.57965 13.2326 9.58923C13.0905 9.59881 12.9533 9.645 12.8344 9.72332C12.7154 9.80163 12.6188 9.90939 12.5538 10.0361L12.4796 10.2069C12.4064 10.3458 12.2833 10.4517 12.135 10.5031C11.9868 10.5546 11.8245 10.5479 11.681 10.4842C11.5376 10.4206 11.4237 10.3048 11.3624 10.1603C11.3011 10.0158 11.2969 9.85348 11.3508 9.70608C11.496 9.30847 11.7598 8.96508 12.1067 8.72244C12.4535 8.47981 12.8665 8.34965 13.2898 8.3496ZM8.33916 4.21991C9.07527 4.21796 9.78435 4.49718 10.3215 5.00052C10.8586 5.50386 11.1833 6.19332 11.2291 6.92801C11.2749 7.6627 11.0385 8.38716 10.568 8.95335C10.0976 9.51953 9.42873 9.88471 8.69808 9.97424L8.61557 9.99075L8.53058 9.9957H2.7713C2.61451 9.99565 2.46358 9.93609 2.34901 9.82905C2.23445 9.72201 2.16478 9.57547 2.15409 9.41904C2.14341 9.26262 2.1925 9.10797 2.29144 8.98634C2.39039 8.86471 2.53181 8.78518 2.68714 8.7638L2.7713 8.75803H8.33998C8.66636 8.75803 8.98542 8.66124 9.2568 8.47992C9.52818 8.29859 9.73969 8.04086 9.86459 7.73932C9.98949 7.43778 10.0222 7.10597 9.9585 6.78586C9.89482 6.46575 9.73765 6.17171 9.50687 5.94092C9.27608 5.71013 8.98204 5.55296 8.66192 5.48929C8.34181 5.42562 8.01001 5.45829 7.70847 5.5832C7.40693 5.7081 7.1492 5.91961 6.96787 6.19099C6.78654 6.46237 6.68976 6.78142 6.68976 7.1078C6.68976 7.27193 6.62456 7.42933 6.50851 7.54539C6.39245 7.66144 6.23505 7.72664 6.07092 7.72664C5.9068 7.72664 5.7494 7.66144 5.63334 7.54539C5.51729 7.42933 5.45209 7.27193 5.45209 7.1078C5.45209 6.34189 5.75635 5.60734 6.29793 5.06576C6.83952 4.52417 7.57324 4.21991 8.33916 4.21991ZM2.97758 4.22404C3.19641 4.22404 3.40628 4.31097 3.56102 4.46571C3.71576 4.62045 3.80269 4.83032 3.80269 5.04915C3.80269 5.26798 3.71576 5.47785 3.56102 5.63259C3.40628 5.78733 3.19641 5.87426 2.97758 5.87426C2.75874 5.87426 2.54887 5.78733 2.39414 5.63259C2.2394 5.47785 2.15247 5.26798 2.15247 5.04915C2.15247 4.83032 2.2394 4.62045 2.39414 4.46571C2.54887 4.31097 2.75874 4.22404 2.97758 4.22404ZM14.5291 3.39893C14.748 3.39893 14.9579 3.48586 15.1126 3.6406C15.2673 3.79533 15.3543 4.0052 15.3543 4.22404C15.3543 4.44287 15.2673 4.65274 15.1126 4.80748C14.9579 4.96222 14.748 5.04915 14.5291 5.04915C14.3103 5.04915 14.1004 4.96222 13.9457 4.80748C13.791 4.65274 13.704 4.44287 13.704 4.22404C13.704 4.0052 13.791 3.79533 13.9457 3.6406C14.1004 3.48586 14.3103 3.39893 14.5291 3.39893Z" fill="#54B6E9"/>
<path d="M91.923 13.0943C91.8094 13.0947 91.6969 13.0711 91.593 13.025C91.005 12.7675 90.5047 12.3444 90.1533 11.8072C89.802 11.27 89.6147 10.6421 89.6144 10.0001C89.6152 9.26845 89.8588 8.55771 90.3069 7.97927C90.755 7.40082 91.3823 6.98736 92.0905 6.80366L92.0897 6.6997C92.0897 3.9694 94.3101 1.74903 97.0404 1.74903C98.2096 1.74751 99.3413 2.16167 100.233 2.91754C101.125 3.67342 101.72 4.72179 101.91 5.87541C101.946 6.09118 101.896 6.31253 101.769 6.49078C101.642 6.66903 101.449 6.78959 101.234 6.82594C101.018 6.86067 100.797 6.80916 100.62 6.68255C100.442 6.55593 100.321 6.3644 100.283 6.14935C100.156 5.38088 99.7609 4.68242 99.1669 4.17867C98.5729 3.67492 97.8192 3.39868 97.0404 3.39925C96.5502 3.39957 96.0661 3.50899 95.6234 3.71957C95.1807 3.93014 94.7905 4.2366 94.4809 4.61672C94.1713 4.99683 93.9502 5.44108 93.8336 5.91724C93.717 6.3934 93.7078 6.88955 93.8068 7.36969L94.0205 8.41758L92.8397 8.34497C92.0047 8.34993 91.2646 9.09005 91.2646 10.0001C91.2646 10.6561 91.6532 11.2502 92.2547 11.5134C92.4283 11.5894 92.5705 11.7229 92.6573 11.8914C92.744 12.0599 92.7702 12.2531 92.7313 12.4386C92.6923 12.6241 92.5907 12.7906 92.4436 12.91C92.2964 13.0294 92.1126 13.0945 91.923 13.0943ZM103.641 5.87459C103.422 5.87459 103.213 5.96152 103.058 6.11626C102.903 6.271 102.816 6.48087 102.816 6.6997C102.816 6.91853 102.903 7.1284 103.058 7.28314C103.213 7.43788 103.422 7.52481 103.641 7.52481C103.86 7.52481 104.07 7.61174 104.225 7.76648C104.379 7.92122 104.466 8.13109 104.466 8.34992C104.466 8.56876 104.379 8.77863 104.225 8.93337C104.07 9.0881 103.86 9.17504 103.641 9.17504H95.7202C95.5014 9.17504 95.2915 9.26197 95.1368 9.41671C94.982 9.57144 94.8951 9.78131 94.8951 10.0001C94.8951 10.219 94.982 10.4289 95.1368 10.5836C95.2915 10.7383 95.5014 10.8253 95.7202 10.8253H99.5157C99.7346 10.8253 99.9444 10.9122 100.099 11.0669C100.254 11.2217 100.341 11.4315 100.341 11.6504C100.341 11.8692 100.254 12.0791 100.099 12.2338C99.9444 12.3886 99.7346 12.4755 99.5157 12.4755H95.3902C94.0254 12.4755 92.9148 13.5861 92.9148 14.9508C92.9148 16.3156 94.0254 17.4262 95.3902 17.4262C95.609 17.4262 95.8189 17.3392 95.9736 17.1845C96.1283 17.0298 96.2153 16.8199 96.2153 16.601C96.2153 16.3822 96.1283 16.1723 95.9736 16.0176C95.8189 15.8629 95.609 15.7759 95.3902 15.7759C95.1713 15.7759 94.9615 15.689 94.8067 15.5343C94.652 15.3795 94.5651 15.1697 94.5651 14.9508C94.5651 14.732 94.652 14.5221 94.8067 14.3674C94.9615 14.2126 95.1713 14.1257 95.3902 14.1257H99.5157C100.88 14.1257 101.991 13.0151 101.991 11.6504C101.991 11.3591 101.932 11.0843 101.838 10.8253H103.641C105.006 10.8253 106.117 9.71466 106.117 8.34992C106.117 6.98519 105.006 5.87459 103.641 5.87459Z" fill="#54B6E9"/>
<g clip-path="url(#clip0_524_1740)">
<path d="M192.753 14.9505C192.535 14.9505 192.325 14.8636 192.17 14.7088C192.015 14.5541 191.928 14.3442 191.928 14.1254C191.928 13.9066 192.015 13.6967 192.17 13.5419C192.325 13.3872 192.535 13.3003 192.753 13.3003C194.118 13.3003 195.229 12.1897 195.229 10.8249C195.229 9.46021 194.118 8.34961 192.753 8.34961C192.557 8.34961 192.344 8.38426 192.083 8.4577L191.199 8.70605L191.045 7.80008C190.919 7.03146 190.523 6.33281 189.929 5.82889C189.335 5.32498 188.582 5.04861 187.803 5.04916C187.313 5.0499 186.83 5.15943 186.388 5.36981C185.946 5.5802 185.556 5.8862 185.246 6.26568C184.937 6.64515 184.716 7.08863 184.599 7.56405C184.482 8.03946 184.472 8.53494 184.57 9.01465L184.784 10.0378L183.6 9.99488C182.766 9.99983 182.027 10.74 182.027 11.6501C182.027 12.5602 182.766 13.3003 183.677 13.3003C183.896 13.3003 184.106 13.3872 184.261 13.5419C184.415 13.6967 184.502 13.9066 184.502 14.1254C184.502 14.3442 184.415 14.5541 184.261 14.7088C184.106 14.8636 183.896 14.9505 183.677 14.9505C181.858 14.9505 180.377 13.4703 180.377 11.6501C180.378 10.9182 180.621 10.2074 181.07 9.62896C181.518 9.05051 182.145 8.63712 182.854 8.45357L182.852 8.34961C182.852 5.61931 185.072 3.39893 187.803 3.39893C188.828 3.39716 189.828 3.71541 190.664 4.30929C191.499 4.90317 192.128 5.74305 192.464 6.71176C194.877 6.51291 196.879 8.45439 196.879 10.8249C196.879 13.0998 195.028 14.9505 192.753 14.9505ZM189.155 11.6501L185.442 14.9926L187.917 16.1882L186.68 19.0761L190.393 15.7344L187.917 14.5379L189.155 11.6501Z" fill="#54B6E9"/>
</g>
<path d="M53.3095 3.39885L52.4844 5.81973L51.6593 3.39885C51.6148 3.26774 51.6022 3.12791 51.6225 2.99095C51.6428 2.85399 51.6955 2.72385 51.7762 2.61131C51.8568 2.49877 51.9631 2.40707 52.0863 2.34381C52.2094 2.28055 52.3459 2.24756 52.4844 2.24756C52.6228 2.24756 52.7593 2.28055 52.8825 2.34381C53.0056 2.40707 53.1119 2.49877 53.1926 2.61131C53.2732 2.72385 53.3259 2.85399 53.3462 2.99095C53.3666 3.12791 53.354 3.26774 53.3095 3.39885ZM45.8835 9.17464L48.3043 9.99975L45.8835 10.8249C45.7524 10.8694 45.6125 10.882 45.4756 10.8616C45.3386 10.8413 45.2085 10.7886 45.0959 10.708C44.9834 10.6273 44.8917 10.521 44.8284 10.3978C44.7652 10.2747 44.7322 10.1382 44.7322 9.99975C44.7322 9.86129 44.7652 9.72483 44.8284 9.60166C44.8917 9.4785 44.9834 9.37219 45.0959 9.29153C45.2085 9.21088 45.3386 9.1582 45.4756 9.13787C45.6125 9.11754 45.7524 9.13015 45.8835 9.17464ZM51.6593 16.6006L52.4844 14.1798L53.3095 16.6006C53.354 16.7318 53.3666 16.8716 53.3462 17.0085C53.3259 17.1455 53.2732 17.2756 53.1926 17.3882C53.1119 17.5007 53.0056 17.5924 52.8825 17.6557C52.7593 17.7189 52.6228 17.7519 52.4844 17.7519C52.3459 17.7519 52.2094 17.7189 52.0863 17.6557C51.9631 17.5924 51.8568 17.5007 51.7762 17.3882C51.6955 17.2756 51.6428 17.1455 51.6225 17.0085C51.6022 16.8716 51.6148 16.7318 51.6593 16.6006ZM59.0853 10.8232L56.6644 9.9981L59.0853 9.17299C59.2164 9.1285 59.3562 9.11589 59.4932 9.13622C59.6301 9.15655 59.7603 9.20923 59.8728 9.28988C59.9853 9.37054 60.077 9.47685 60.1403 9.60001C60.2036 9.72318 60.2366 9.85964 60.2366 9.9981C60.2366 10.1366 60.2036 10.273 60.1403 10.3962C60.077 10.5193 59.9853 10.6257 59.8728 10.7063C59.7603 10.787 59.6301 10.8396 59.4932 10.86C59.3562 10.8803 59.2164 10.8677 59.0853 10.8232ZM48.4001 4.74874L49.528 7.04337L47.2334 5.91544C47.1087 5.85443 47.0003 5.76453 46.9174 5.65321C46.8344 5.5419 46.7792 5.41239 46.7564 5.27545C46.7336 5.13851 46.7438 4.99811 46.7861 4.8659C46.8285 4.7337 46.9018 4.61352 47 4.51535C47.0981 4.41719 47.2183 4.34388 47.3505 4.30151C47.4827 4.25915 47.6231 4.24895 47.7601 4.27178C47.897 4.2946 48.0265 4.34979 48.1378 4.43275C48.2491 4.5157 48.339 4.62404 48.4001 4.74874ZM47.2334 14.0832L49.528 12.9553L48.4001 15.2499C48.339 15.3746 48.2491 15.483 48.1378 15.5659C48.0265 15.6489 47.897 15.7041 47.7601 15.7269C47.6231 15.7497 47.4827 15.7395 47.3505 15.6972C47.2183 15.6548 47.0981 15.5815 47 15.4833C46.9018 15.3852 46.8285 15.265 46.7861 15.1328C46.7438 15.0006 46.7336 14.8602 46.7564 14.7232C46.7792 14.5863 46.8344 14.4568 46.9174 14.3455C47.0003 14.2341 47.1087 14.1442 47.2334 14.0832ZM56.5678 15.2499L55.4399 12.9553L57.7346 14.0832C57.8593 14.1442 57.9676 14.2341 58.0505 14.3455C58.1335 14.4568 58.1887 14.5863 58.2115 14.7232C58.2343 14.8602 58.2241 15.0006 58.1818 15.1328C58.1394 15.265 58.0661 15.3852 57.9679 15.4833C57.8698 15.5815 57.7496 15.6548 57.6174 15.6972C57.4852 15.7395 57.3448 15.7497 57.2078 15.7269C57.0709 15.7041 56.9414 15.6489 56.8301 15.5659C56.7188 15.483 56.6289 15.3746 56.5678 15.2499ZM57.7337 5.91379L55.4383 7.04255L56.567 4.74708C56.628 4.62239 56.7179 4.51405 56.8293 4.4311C56.9406 4.34814 57.0701 4.29295 57.207 4.27013C57.344 4.2473 57.4844 4.2575 57.6166 4.29986C57.7488 4.34223 57.8689 4.41554 57.9671 4.5137C58.0653 4.61187 58.1386 4.73205 58.181 4.86425C58.2233 4.99646 58.2335 5.13686 58.2107 5.2738C58.1879 5.41074 58.1327 5.54025 58.0497 5.65156C57.9668 5.76288 57.8584 5.85278 57.7337 5.91379ZM52.4844 13.7128C50.4373 13.7128 48.7714 12.0469 48.7714 9.99975C48.7714 7.95265 50.4373 6.28674 52.4844 6.28674C54.5315 6.28674 56.1974 7.95265 56.1974 9.99975C56.1974 12.0469 54.5315 13.7128 52.4844 13.7128ZM52.4844 7.93697C51.3465 7.93697 50.4216 8.86192 50.4216 9.99975C50.4216 11.1376 51.3465 12.0625 52.4844 12.0625C53.6222 12.0625 54.5471 11.1376 54.5471 9.99975C54.5471 8.86192 53.6222 7.93697 52.4844 7.93697Z" fill="#54B6E9"/>
<g clip-path="url(#clip1_524_1740)">
<path d="M236.484 18.2509C236.265 18.2509 236.056 18.164 235.901 18.0093C235.746 17.8545 235.659 17.6447 235.659 17.4258V12.4752C235.659 12.2563 235.746 12.0465 235.901 11.8917C236.056 11.737 236.265 11.6501 236.484 11.6501C236.703 11.6501 236.913 11.737 237.068 11.8917C237.222 12.0465 237.309 12.2563 237.309 12.4752V17.4258C237.309 17.6447 237.222 17.8545 237.068 18.0093C236.913 18.164 236.703 18.2509 236.484 18.2509ZM231.534 18.2509C231.315 18.2509 231.105 18.164 230.95 18.0093C230.795 17.8545 230.708 17.6447 230.708 17.4258V12.4752C230.708 12.2563 230.795 12.0465 230.95 11.8917C231.105 11.737 231.315 11.6501 231.534 11.6501C231.752 11.6501 231.962 11.737 232.117 11.8917C232.272 12.0465 232.359 12.2563 232.359 12.4752V17.4258C232.359 17.6447 232.272 17.8545 232.117 18.0093C231.962 18.164 231.752 18.2509 231.534 18.2509ZM234.009 19.9012C233.79 19.9012 233.58 19.8142 233.425 19.6595C233.271 19.5048 233.184 19.2949 233.184 19.0761V14.1254C233.184 13.9066 233.271 13.6967 233.425 13.5419C233.58 13.3872 233.79 13.3003 234.009 13.3003C234.228 13.3003 234.438 13.3872 234.592 13.5419C234.747 13.6967 234.834 13.9066 234.834 14.1254V19.0761C234.834 19.2949 234.747 19.5048 234.592 19.6595C234.438 19.8142 234.228 19.9012 234.009 19.9012ZM229.058 14.9505C227.238 14.9505 225.758 13.4703 225.758 11.6501C225.759 10.9184 226.002 10.2076 226.45 9.62917C226.898 9.05073 227.526 8.63727 228.234 8.45357L228.233 8.3496C228.233 5.61931 230.454 3.39893 233.184 3.39893C234.209 3.39736 235.209 3.71567 236.045 4.30951C236.88 4.90335 237.51 5.74311 237.846 6.71176C240.268 6.51043 242.26 8.45522 242.26 10.8249C242.259 11.7269 241.962 12.6037 241.416 13.3216C240.87 14.0395 240.104 14.5591 239.235 14.8012C239.13 14.8338 239.019 14.8448 238.909 14.8337C238.799 14.8226 238.692 14.7896 238.595 14.7365C238.499 14.6835 238.413 14.6115 238.345 14.5249C238.276 14.4383 238.226 14.3388 238.196 14.2324C238.167 14.1259 238.159 14.0146 238.174 13.9051C238.188 13.7956 238.224 13.6901 238.28 13.5949C238.336 13.4996 238.411 13.4166 238.499 13.3507C238.588 13.2848 238.689 13.2373 238.796 13.2112C239.317 13.0655 239.777 12.7535 240.104 12.3227C240.431 11.892 240.609 11.366 240.61 10.8249C240.61 9.4602 239.499 8.3496 238.134 8.3496C237.935 8.3496 237.723 8.38343 237.465 8.45687L236.579 8.70935L236.427 7.80008C236.3 7.03146 235.905 6.33281 235.311 5.82889C234.717 5.32498 233.963 5.04861 233.184 5.04916C232.694 5.0497 232.21 5.15915 231.768 5.36959C231.326 5.58003 230.936 5.88618 230.626 6.2659C230.317 6.64561 230.096 7.08937 229.979 7.56506C229.862 8.04074 229.853 8.53645 229.951 9.01629L230.156 10.0081L228.982 9.99488C228.148 9.99983 227.408 10.74 227.408 11.6501C227.408 12.5602 228.148 13.3003 229.058 13.3003C229.277 13.3003 229.487 13.3872 229.642 13.5419C229.796 13.6967 229.883 13.9066 229.883 14.1254C229.883 14.3442 229.796 14.5541 229.642 14.7088C229.487 14.8636 229.277 14.9505 229.058 14.9505Z" fill="#54B6E9"/>
</g>
<path d="M281.453 2.57412L280.628 5.04946L279.803 2.57412C279.76 2.4436 279.748 2.30472 279.769 2.16891C279.79 2.03309 279.843 1.9042 279.924 1.79283C280.004 1.68145 280.11 1.59078 280.232 1.52824C280.355 1.46571 280.49 1.43311 280.628 1.43311C280.765 1.43311 280.901 1.46571 281.023 1.52824C281.145 1.59078 281.251 1.68145 281.332 1.79283C281.412 1.9042 281.465 2.03309 281.486 2.16891C281.507 2.30472 281.496 2.4436 281.453 2.57412ZM285.879 5.09071L283.545 6.25825L284.712 3.92401C284.82 3.72619 285.001 3.57799 285.216 3.5106C285.431 3.44321 285.664 3.46188 285.865 3.56269C286.067 3.66349 286.222 3.83857 286.297 4.05108C286.372 4.26358 286.362 4.49696 286.268 4.70209C286.184 4.87036 286.047 5.00673 285.879 5.09071ZM287.229 10.0001L284.753 9.17502L287.229 8.34991C287.359 8.30637 287.499 8.29452 287.635 8.31532C287.771 8.33613 287.9 8.389 288.012 8.46957C288.124 8.55015 288.215 8.65613 288.278 8.77878C288.34 8.90143 288.373 9.03724 288.373 9.17502C288.373 9.3128 288.34 9.44861 288.278 9.57126C288.215 9.69391 288.124 9.79989 288.012 9.88046C287.9 9.96104 287.771 10.0139 287.635 10.0347C287.499 10.0555 287.359 10.0437 287.229 10.0001ZM276.543 3.92401L277.711 6.25825L275.377 5.09071C275.253 5.0293 275.146 4.93932 275.064 4.8282C274.981 4.71708 274.927 4.58802 274.905 4.45168C274.882 4.31535 274.893 4.17565 274.935 4.04415C274.977 3.91264 275.05 3.79311 275.148 3.69542C275.246 3.59773 275.365 3.52469 275.497 3.48235C275.628 3.44001 275.768 3.42957 275.904 3.45191C276.041 3.47424 276.17 3.52871 276.281 3.6108C276.392 3.69289 276.482 3.80025 276.543 3.92401ZM284.156 10.2823C284.271 9.93247 284.341 9.56365 284.341 9.17502C284.341 7.12792 282.675 5.46201 280.628 5.46201C279.522 5.46201 278.534 5.95213 277.858 6.72279L277.74 6.69968C277.043 6.70014 276.354 6.84825 275.718 7.13426C275.083 7.42026 274.515 7.83766 274.052 8.35898C273.899 8.30223 273.732 8.29005 273.572 8.32387C273.411 8.35768 273.264 8.43611 273.146 8.55011C273.028 8.66411 272.945 8.80905 272.906 8.96822C272.868 9.12739 272.874 9.29432 272.926 9.44978C272.973 9.58757 273.057 9.69649 273.155 9.7889C272.914 10.3799 272.79 11.0121 272.789 11.6504L272.791 11.7543C272.082 11.9379 271.455 12.3513 271.007 12.9297C270.558 13.5082 270.315 14.219 270.314 14.9508C270.314 16.771 271.795 18.2513 273.614 18.2513H282.691C284.965 18.2513 286.816 16.4005 286.816 14.1257C286.816 12.369 285.707 10.8756 284.156 10.2823ZM280.628 7.11224C281.766 7.11224 282.691 8.03719 282.691 9.17502C282.691 9.47701 282.611 9.75755 282.494 10.0158C282.202 10.0331 281.9 10.0769 281.572 10.1709C281.359 9.61914 281.031 9.11948 280.609 8.70589C280.186 8.2923 279.68 7.97447 279.124 7.77398C279.315 7.56591 279.548 7.39971 279.806 7.28583C280.065 7.17195 280.345 7.11284 280.628 7.11224ZM282.691 16.601H273.614C272.703 16.601 271.964 15.8609 271.964 14.9508C271.964 14.0407 272.703 13.3006 273.538 13.2956L274.712 13.3088L274.507 12.317C274.409 11.8372 274.419 11.3416 274.535 10.8659C274.652 10.3903 274.873 9.94662 275.183 9.56695C275.492 9.18728 275.882 8.88112 276.324 8.67064C276.767 8.46015 277.25 8.3506 277.74 8.34991L277.797 8.33836C278.555 8.3565 279.284 8.63437 279.862 9.12549C280.439 9.61661 280.831 10.2912 280.971 11.0365L281.002 11.1899C281.051 11.3592 281.154 11.5081 281.295 11.614C281.435 11.72 281.607 11.7773 281.783 11.7774L282.021 11.7584C282.279 11.6842 282.491 11.6504 282.691 11.6504C284.055 11.6504 285.166 12.761 285.166 14.1257C285.166 15.4904 284.055 16.601 282.691 16.601Z" fill="#54B6E9"/>
<path d="M147.372 14.9505C147.153 14.9505 146.943 14.8636 146.789 14.7088C146.634 14.5541 146.547 14.3442 146.547 14.1254C146.547 13.9066 146.634 13.6967 146.789 13.5419C146.943 13.3872 147.153 13.3003 147.372 13.3003C148.737 13.3003 149.848 12.1897 149.848 10.8249C149.848 9.46021 148.737 8.34961 147.372 8.34961C147.172 8.34961 146.96 8.38343 146.704 8.45687L145.817 8.71018L145.664 7.80008C145.538 7.03146 145.142 6.33281 144.548 5.82889C143.954 5.32498 143.2 5.04861 142.421 5.04916C141.931 5.04963 141.448 5.15912 141.005 5.3697C140.563 5.58028 140.172 5.88668 139.863 6.26668C139.553 6.64668 139.332 7.09078 139.216 7.56677C139.099 8.04277 139.09 8.53875 139.189 9.01877L139.39 10.0081L138.218 9.99488C137.386 9.99983 136.646 10.74 136.646 11.6501C136.646 12.5602 137.386 13.3003 138.296 13.3003C138.515 13.3003 138.725 13.3872 138.879 13.5419C139.034 13.6967 139.121 13.9066 139.121 14.1254C139.121 14.3442 139.034 14.5541 138.879 14.7088C138.725 14.8636 138.515 14.9505 138.296 14.9505C136.476 14.9505 134.995 13.4703 134.995 11.6501C134.996 10.9184 135.24 10.2076 135.688 9.62917C136.136 9.05073 136.763 8.63727 137.472 8.45357L137.471 8.34961C137.471 5.61931 139.691 3.39893 142.421 3.39893C143.447 3.39723 144.447 3.7155 145.283 4.30936C146.118 4.90321 146.748 5.74305 147.083 6.71176C149.508 6.51043 151.498 8.45522 151.498 10.8249C151.498 13.0998 149.647 14.9505 147.372 14.9505ZM142.009 14.9505L142.834 12.4752L143.659 14.9505C143.702 15.081 143.714 15.2199 143.693 15.3557C143.672 15.4915 143.619 15.6204 143.538 15.7318C143.458 15.8432 143.352 15.9338 143.229 15.9964C143.107 16.0589 142.971 16.0915 142.834 16.0915C142.697 16.0915 142.561 16.0589 142.439 15.9964C142.316 15.9338 142.211 15.8432 142.13 15.7318C142.049 15.6204 141.996 15.4915 141.975 15.3557C141.954 15.2199 141.966 15.081 142.009 14.9505ZM144.484 16.6007L145.309 14.1254L146.134 16.6007C146.178 16.7312 146.189 16.8701 146.168 17.0059C146.147 17.1418 146.094 17.2707 146.013 17.382C145.933 17.4934 145.827 17.5841 145.705 17.6466C145.582 17.7091 145.447 17.7417 145.309 17.7417C145.172 17.7417 145.036 17.7091 144.914 17.6466C144.792 17.5841 144.686 17.4934 144.605 17.382C144.525 17.2707 144.472 17.1418 144.451 17.0059C144.43 16.8701 144.441 16.7312 144.484 16.6007ZM139.534 16.6007L140.359 14.1254L141.184 16.6007C141.227 16.7312 141.238 16.8701 141.217 17.0059C141.196 17.1418 141.143 17.2707 141.063 17.382C140.982 17.4934 140.876 17.5841 140.754 17.6466C140.632 17.7091 140.496 17.7417 140.359 17.7417C140.221 17.7417 140.086 17.7091 139.963 17.6466C139.841 17.5841 139.735 17.4934 139.655 17.382C139.574 17.2707 139.521 17.1418 139.5 17.0059C139.479 16.8701 139.491 16.7312 139.534 16.6007Z" fill="#54B6E9"/>
<path d="M331.785 12.5861L329.758 12.1711L330.981 11.8443C331.086 11.8163 331.184 11.7679 331.27 11.7019C331.356 11.6359 331.428 11.5536 331.482 11.4598C331.536 11.3659 331.571 11.2623 331.586 11.1549C331.6 11.0474 331.593 10.9382 331.565 10.8336C331.536 10.7289 331.488 10.6308 331.422 10.5448C331.356 10.4589 331.274 10.3867 331.18 10.3326C331.086 10.2784 330.982 10.2432 330.875 10.2291C330.768 10.215 330.658 10.2222 330.554 10.2502L329.309 10.5827C329.34 10.3921 329.368 10.1999 329.368 10.0002C329.368 9.80054 329.34 9.60746 329.309 9.41686L330.555 9.7502L330.77 9.77826C330.97 9.77815 331.163 9.70529 331.314 9.57324C331.464 9.44119 331.562 9.25897 331.588 9.06051C331.614 8.86205 331.567 8.66089 331.455 8.4945C331.344 8.32811 331.176 8.20784 330.983 8.15609L329.759 7.82852L331.785 7.41431C331.92 7.38666 332.046 7.32733 332.154 7.24121C332.261 7.1551 332.347 7.04465 332.403 6.91899C332.46 6.79332 332.486 6.65603 332.479 6.51842C332.472 6.38081 332.432 6.24682 332.363 6.12749C332.295 6.00817 332.198 5.90692 332.083 5.83209C331.967 5.75726 331.835 5.711 331.698 5.6971C331.561 5.68321 331.422 5.70208 331.294 5.75218C331.166 5.80227 331.051 5.88214 330.96 5.98522L329.588 7.53148L329.916 6.31114C329.944 6.20647 329.951 6.09727 329.937 5.98979C329.923 5.8823 329.888 5.77863 329.834 5.6847C329.725 5.49499 329.545 5.35645 329.333 5.29955C329.122 5.24265 328.897 5.27206 328.707 5.38131C328.517 5.49055 328.379 5.67069 328.322 5.88208L327.986 7.13377C327.684 6.88441 327.345 6.68471 326.98 6.54217L327.889 5.6329C327.966 5.55629 328.027 5.46534 328.068 5.36525C328.11 5.26516 328.131 5.15788 328.131 5.04954C328.131 4.9412 328.11 4.83392 328.068 4.73383C328.027 4.63374 327.966 4.54279 327.889 4.46619C327.813 4.38958 327.722 4.32881 327.622 4.28735C327.522 4.24589 327.414 4.22455 327.306 4.22455C327.198 4.22455 327.09 4.24589 326.99 4.28735C326.89 4.32881 326.799 4.38958 326.723 4.46619L325.827 5.36226L326.481 3.39932C326.524 3.26879 326.536 3.12992 326.514 2.9941C326.493 2.85828 326.44 2.72939 326.36 2.61802C326.279 2.50665 326.174 2.41597 326.051 2.35344C325.929 2.29091 325.793 2.2583 325.656 2.2583C325.518 2.2583 325.383 2.29091 325.261 2.35344C325.138 2.41597 325.032 2.50665 324.952 2.61802C324.871 2.72939 324.818 2.85828 324.797 2.9941C324.776 3.12992 324.788 3.26879 324.831 3.39932L325.485 5.36226L324.589 4.46619C324.434 4.31147 324.224 4.22455 324.006 4.22455C323.787 4.22455 323.577 4.31147 323.422 4.46619C323.268 4.6209 323.181 4.83074 323.181 5.04954C323.181 5.26834 323.268 5.47818 323.422 5.6329L324.332 6.54217C323.967 6.68523 323.628 6.88488 323.326 7.13377L322.992 5.88373C322.965 5.77746 322.918 5.67753 322.852 5.58976C322.787 5.50199 322.704 5.42814 322.61 5.37252C322.516 5.31689 322.411 5.2806 322.303 5.26576C322.194 5.25093 322.084 5.25784 321.978 5.2861C321.872 5.31436 321.773 5.3634 321.686 5.43036C321.6 5.49732 321.527 5.58087 321.473 5.67612C321.419 5.77138 321.385 5.87644 321.372 5.98518C321.359 6.09392 321.367 6.20417 321.397 6.30949L321.724 7.53478L320.353 5.98604C320.245 5.86591 320.107 5.77792 319.952 5.73184C319.798 5.68577 319.633 5.68342 319.478 5.72505C319.322 5.76668 319.181 5.85066 319.07 5.96766C318.959 6.08467 318.883 6.23012 318.85 6.38787C318.753 6.85819 319.057 7.3186 319.528 7.41514L321.553 7.83017L320.331 8.15691C320.138 8.20866 319.97 8.32893 319.859 8.49532C319.748 8.66171 319.701 8.86287 319.727 9.06133C319.753 9.25979 319.85 9.44202 320 9.57406C320.151 9.70611 320.344 9.77898 320.544 9.77908L320.759 9.75103L322.003 9.41768C321.967 9.60983 321.947 9.80469 321.943 10.0002C321.943 10.1999 321.971 10.3921 322.001 10.5836L320.757 10.2502C320.653 10.2222 320.543 10.215 320.436 10.2291C320.328 10.2432 320.225 10.2784 320.131 10.3326C320.037 10.3867 319.955 10.4589 319.889 10.5448C319.823 10.6308 319.774 10.7289 319.746 10.8336C319.718 10.9382 319.711 11.0474 319.725 11.1549C319.739 11.2623 319.775 11.3659 319.829 11.4598C319.883 11.5536 319.955 11.6359 320.041 11.7019C320.127 11.7679 320.225 11.8163 320.33 11.8443L321.553 12.1719L319.528 12.5861C319.369 12.618 319.223 12.6935 319.105 12.8041C318.987 12.9148 318.902 13.0562 318.86 13.2125C318.818 13.3687 318.821 13.5335 318.868 13.6883C318.915 13.8431 319.004 13.9818 319.125 14.0886C319.211 14.1645 319.31 14.2229 319.418 14.2603C319.526 14.2977 319.64 14.3134 319.754 14.3066C319.868 14.2997 319.98 14.2705 320.083 14.2205C320.185 14.1705 320.277 14.1007 320.353 14.0152L321.727 12.4656L321.398 13.6901C321.37 13.7948 321.363 13.904 321.377 14.0114C321.391 14.1189 321.426 14.2225 321.481 14.3163C321.535 14.4102 321.607 14.4925 321.693 14.5584C321.779 14.6244 321.877 14.6728 321.982 14.7009L322.196 14.7289C322.378 14.7288 322.554 14.6688 322.698 14.5583C322.842 14.4477 322.945 14.2928 322.992 14.1175L323.327 12.8675C323.629 13.1134 323.964 13.3163 324.334 13.4583L323.423 14.3675C323.347 14.4441 323.286 14.5351 323.244 14.6352C323.203 14.7353 323.182 14.8425 323.182 14.9509C323.182 15.0592 323.203 15.1665 323.244 15.2666C323.286 15.3667 323.347 15.4576 323.423 15.5342C323.578 15.689 323.788 15.7759 324.006 15.7759C324.115 15.7759 324.222 15.7545 324.322 15.7131C324.422 15.6716 324.513 15.6108 324.59 15.5342L325.172 14.9509H325.38L324.831 16.6003C324.788 16.7308 324.776 16.8697 324.797 17.0055C324.818 17.1413 324.871 17.2702 324.952 17.3816C325.032 17.493 325.138 17.5836 325.261 17.6462C325.383 17.7087 325.518 17.7413 325.656 17.7413C325.793 17.7413 325.929 17.7087 326.051 17.6462C326.174 17.5836 326.279 17.493 326.36 17.3816C326.44 17.2702 326.493 17.1413 326.514 17.0055C326.536 16.8697 326.524 16.7308 326.481 16.6003L325.931 14.9509H326.139L326.723 15.5342C326.877 15.689 327.087 15.7759 327.306 15.7759C327.525 15.7759 327.735 15.689 327.889 15.5342C328.044 15.3795 328.131 15.1697 328.131 14.9509C328.131 14.7321 328.044 14.5222 327.889 14.3675L326.98 13.4574C327.345 13.3152 327.685 13.1155 327.987 12.8658L328.322 14.1175C328.369 14.2928 328.472 14.4477 328.616 14.5583C328.76 14.6688 328.937 14.7288 329.118 14.7289L329.333 14.7009C329.437 14.6728 329.535 14.6244 329.621 14.5584C329.707 14.4925 329.779 14.4102 329.834 14.3163C329.888 14.2225 329.923 14.1189 329.937 14.0114C329.951 13.904 329.944 13.7948 329.916 13.6901L329.588 12.4689L330.96 14.0152C331.051 14.1183 331.166 14.1982 331.294 14.2483C331.422 14.2983 331.561 14.3172 331.698 14.3033C331.835 14.2894 331.967 14.2432 332.083 14.1683C332.198 14.0935 332.295 13.9923 332.363 13.8729C332.432 13.7536 332.472 13.6196 332.479 13.482C332.486 13.3444 332.46 13.2071 332.403 13.0814C332.347 12.9558 332.261 12.8453 332.154 12.7592C332.046 12.6731 331.92 12.6138 331.785 12.5861ZM325.656 12.063C324.518 12.063 323.593 11.138 323.593 10.0002C323.593 8.86238 324.518 7.93743 325.656 7.93743C326.794 7.93743 327.719 8.86238 327.719 10.0002C327.719 11.138 326.794 12.063 325.656 12.063Z" fill="#54B6E9"/>
<defs>
<clipPath id="clip0_524_1740">
<rect width="19.8027" height="19.8027" fill="white" transform="translate(178.726 0.0986328)"/>
</clipPath>
<clipPath id="clip1_524_1740">
<rect width="19.8027" height="19.8027" fill="white" transform="translate(224.108 0.0986328)"/>
</clipPath>
</defs>
</svg>
